<?xml version="1.0" encoding="utf-8"?>
<!-- Generator: Adobe Illustrator 23.1.1, SVG Export Plug-In . SVG Version: 6.00 Build 0)  -->
<svg version="1.1" id="Layer_1" xmlns="http://www.w3.org/2000/svg" xmlns:xlink="http://www.w3.org/1999/xlink" x="0px" y="0px"
	 viewBox="0 0 260 235" style="enable-background:new 0 0 260 235;" xml:space="preserve">
<style type="text/css">
	.st0{fill:#C0DF88;}
	.st1{fill:#00BBB4;}
	.st2{fill:#2ED9C3;}
	.st3{fill:#76BC21;}
	.st4{fill:#FFFFFF;}
</style>
<g>
	<g>
		<path class="st0" d="M122.6,129.4c-2.9,0-5.3-2.4-5.3-5.3V95.7c0-10-8.2-18.2-18.2-18.2H70.7c-2.9,0-5.3-2.4-5.3-5.3
			c0-2.9,2.4-5.3,5.3-5.3h28.4c15.9,0,28.8,12.9,28.8,28.8v28.4C127.9,127,125.5,129.4,122.6,129.4z"/>
		<path class="st1" d="M189.3,62.7h-28.4c-15.9,0-28.8-12.9-28.8-28.8V5.5c0-2.9,2.4-5.3,5.3-5.3c2.9,0,5.3,2.4,5.3,5.3v28.4
			c0,10,8.2,18.2,18.2,18.2h28.4c2.9,0,5.3,2.4,5.3,5.3S192.2,62.7,189.3,62.7z"/>
		<path class="st2" d="M139.2,112.8c-2.9,0-5.3-2.4-5.3-5.3V89.2c0-11.3,9.2-20.5,20.5-20.5h18.3c2.9,0,5.3,2.4,5.3,5.3
			s-2.4,5.3-5.3,5.3h-18.3c-5.4,0-9.9,4.4-9.9,9.9v18.3C144.5,110.4,142.1,112.8,139.2,112.8z"/>
		<path class="st3" d="M105.6,60.9H87.3c-2.9,0-5.3-2.4-5.3-5.3s2.4-5.3,5.3-5.3h18.3c5.4,0,9.9-4.4,9.9-9.9V22.1
			c0-2.9,2.4-5.3,5.3-5.3s5.3,2.4,5.3,5.3v18.3C126.1,51.7,116.9,60.9,105.6,60.9z"/>
	</g>
	<g>
		<path class="st1" d="M43.2,227.2v-9.9h3v9.7c0,3.2,1.6,4.9,4.3,4.9c2.7,0,4.3-1.6,4.3-4.8v-9.9h3v9.7c0,5.1-2.9,7.7-7.4,7.7
			C46,234.8,43.2,232.2,43.2,227.2z"/>
		<path class="st1" d="M68.7,217.2h2.8l7.5,17.3h-3.2l-1.7-4.1H66l-1.8,4.1h-3.1L68.7,217.2z M73,227.7l-3-6.9l-2.9,6.9H73z"/>
		<path class="st1" d="M79.2,217.3h3.3l5.2,13.2l5.1-13.2h3.3L89,234.6h-2.7L79.2,217.3z"/>
		<path class="st1" d="M107.7,232l1.8-2.2c1.6,1.4,3.3,2.2,5.4,2.2c1.9,0,3-0.9,3-2.2v0c0-1.2-0.7-1.9-3.9-2.6
			c-3.6-0.9-5.7-2-5.7-5.1v0c0-2.9,2.4-5,5.9-5c2.5,0,4.5,0.8,6.2,2.2l-1.6,2.3c-1.5-1.2-3.1-1.8-4.7-1.8c-1.8,0-2.8,0.9-2.8,2v0
			c0,1.3,0.8,1.9,4.1,2.7c3.6,0.9,5.5,2.2,5.5,5v0c0,3.2-2.5,5.1-6.1,5.1C112.2,234.7,109.8,233.8,107.7,232z"/>
		<path class="st1" d="M124.7,228.1L124.7,228.1c0-3.7,2.6-6.8,6.3-6.8c4.1,0,6.2,3.2,6.2,7c0,0.3,0,0.5,0,0.8h-9.5
			c0.3,2.1,1.8,3.3,3.7,3.3c1.4,0,2.5-0.5,3.5-1.5l1.7,1.5c-1.2,1.5-2.9,2.4-5.3,2.4C127.6,234.8,124.7,232.1,124.7,228.1z
			 M134.3,227.1c-0.2-1.9-1.3-3.4-3.3-3.4c-1.8,0-3.1,1.4-3.4,3.4H134.3z"/>
		<path class="st1" d="M141.4,221.6h3v2.9c0.8-1.9,2.3-3.3,4.6-3.2v3.1h-0.2c-2.6,0-4.4,1.7-4.4,5.1v4.9h-3V221.6z"/>
		<path class="st1" d="M151.5,221.6h3.2l3.5,9.5l3.5-9.5h3.1l-5.3,13h-2.7L151.5,221.6z"/>
		<path class="st1" d="M168.6,216.8h3.2v2.8h-3.2V216.8z M168.7,221.6h3v12.9h-3V221.6z"/>
		<path class="st1" d="M176,228.1L176,228.1c0-3.7,2.8-6.8,6.7-6.8c2.4,0,3.9,0.9,5.2,2.2l-1.9,2c-0.9-1-1.9-1.6-3.3-1.6
			c-2.2,0-3.7,1.9-3.7,4.1v0c0,2.3,1.6,4.1,3.9,4.1c1.4,0,2.4-0.6,3.4-1.6l1.8,1.8c-1.3,1.4-2.8,2.4-5.3,2.4
			C178.9,234.8,176,231.8,176,228.1z"/>
		<path class="st1" d="M190.9,228.1L190.9,228.1c0-3.7,2.6-6.8,6.3-6.8c4.1,0,6.2,3.2,6.2,7c0,0.3,0,0.5,0,0.8h-9.5
			c0.3,2.1,1.8,3.3,3.7,3.3c1.4,0,2.5-0.5,3.5-1.5l1.7,1.5c-1.2,1.5-2.9,2.4-5.3,2.4C193.7,234.8,190.9,232.1,190.9,228.1z
			 M200.4,227.1c-0.2-1.9-1.3-3.4-3.3-3.4c-1.8,0-3.1,1.4-3.4,3.4H200.4z"/>
		<path class="st1" d="M206.5,232.8l1.3-2c1.4,1.1,2.9,1.6,4.2,1.6c1.3,0,2-0.5,2-1.4v0c0-1-1.4-1.3-2.9-1.8c-1.9-0.5-4-1.3-4-3.8v0
			c0-2.4,2-3.9,4.6-3.9c1.6,0,3.4,0.6,4.8,1.5l-1.2,2.1c-1.2-0.8-2.6-1.2-3.6-1.2c-1.2,0-1.8,0.5-1.8,1.3v0c0,1,1.4,1.3,2.9,1.8
			c1.9,0.6,4,1.4,4,3.8v0c0,2.7-2.1,4.1-4.8,4.1C210.2,234.7,208.1,234.1,206.5,232.8z"/>
	</g>
	<g>
		<path class="st4" d="M37,190.4H17L13.1,202H0.8l20.3-53.6h14.2l19,53.6H40.9L37,190.4z M33.8,180.9L27,160.6l-6.8,20.3H33.8z"/>
		<path class="st4" d="M65.8,199c-3.4-2.8-5.1-7-5.1-12.5v-25.2h12v24.2c0,2.6,0.6,4.5,1.7,5.7c1.2,1.3,3,1.9,5.5,1.9
			c2.5,0,4.4-0.6,5.5-1.9c1.2-1.3,1.7-3.2,1.7-5.7v-24.2h11.3v25.2c0,5.6-1.6,9.8-4.9,12.6c-3.2,2.8-7.8,4.1-13.7,4.1
			C73.8,203.2,69.2,201.8,65.8,199z"/>
		<path class="st4" d="M109,165.6c0.8-0.7,2.2-1.5,4.2-2.3c2-0.9,4.3-1.6,6.8-2.2c2.5-0.6,4.9-0.9,7.2-0.9c4.4,0,7.5,0.7,9.2,2v8.8
			c-2.1-0.5-5.2-0.7-9.2-0.7c-2.5,0-4.6,0.1-6.2,0.4V202h-12V165.6z"/>
		<path class="st4" d="M144.8,197.7c-3.4-3.6-5.1-9.1-5.1-16.2c0-7.5,1.7-13,5.1-16.4c3.4-3.4,8.6-5.1,15.5-5.1
			c6.9,0,12.1,1.8,15.6,5.3c3.5,3.5,5.2,8.9,5.2,16.3c0,7.1-1.8,12.5-5.4,16.2c-3.6,3.7-8.7,5.5-15.4,5.5
			C153.4,203.2,148.3,201.4,144.8,197.7z M166.9,190.6c1.5-2.1,2.3-5.1,2.3-9c0-4.3-0.7-7.4-2.2-9.3c-1.5-1.8-3.7-2.8-6.7-2.8
			c-3.1,0-5.3,0.9-6.7,2.8c-1.4,1.8-2.1,4.9-2.1,9.3c0,4.1,0.7,7.2,2.1,9.2c1.4,2,3.6,3,6.6,3C163.2,193.6,165.4,192.6,166.9,190.6z
			"/>
		<path class="st4" d="M189.4,165.6c0.8-0.7,2.2-1.5,4.2-2.3c2-0.9,4.3-1.6,6.8-2.2c2.5-0.6,4.9-0.9,7.2-0.9c4.4,0,7.5,0.7,9.2,2
			v8.8c-2.1-0.5-5.2-0.7-9.2-0.7c-2.5,0-4.6,0.1-6.2,0.4V202h-12V165.6z"/>
		<path class="st4" d="M253.7,163.2c3.6,2.1,5.5,5.8,5.5,11.1l-0.1,19.2c-0.1,3.4-1.7,5.8-5.1,7.4c-3.3,1.5-8.2,2.3-14.6,2.3
			c-11.9,0-17.9-4.6-17.9-13.9c0-3.9,1.2-7,3.7-9.2c2.4-2.2,6.1-3.3,10.9-3.3c2,0,4,0.3,6,0.8c2,0.5,3.7,1.2,5.1,2V177
			c0-4.7-3-7-9-7c-2.3,0-4.7,0.4-7.1,1.2c-2.4,0.8-4.4,1.8-5.8,3v-10.6c1.4-1,3.7-1.8,6.6-2.5c3-0.7,6.2-1,9.6-1
			C246,160.1,250.1,161.2,253.7,163.2z M245.7,194.2c1.1-0.4,1.6-1.1,1.6-2.3v-6.3c-1.9-0.6-3.9-1-6.2-1c-2.6,0-4.5,0.4-5.7,1.2
			c-1.2,0.8-1.8,2-1.8,3.7c0,1.6,0.6,2.8,1.9,3.8c1.3,1,2.7,1.4,4.5,1.4C242.7,194.8,244.6,194.6,245.7,194.2z"/>
	</g>
</g>
</svg>
